<?xml version="1.0" encoding="utf-8"?>
<svg width="90" height="90" viewBox="0 0 90 90" fill="none" xmlns="http://www.w3.org/2000/svg">
  <path d="M 90 45 C 90 69.851 69.851 90 45 90 C 20.149 90 0 69.851 0 45 C 0 20.149 20.149 0 45 0 C 69.857 0 90 20.149 90 45 Z M 22.543 47.127 L 34.582 47.127 C 34.717 47.127 34.841 47.062 34.915 46.951 C 35.073 46.711 35.22 46.461 35.355 46.207 C 36.395 44.459 37.319 42.568 37.657 41.172 C 38.448 37.779 36.76 32.328 34.804 27.945 C 34.675 27.654 34.273 27.626 34.102 27.894 L 22.395 46.207 L 22.201 46.512 C 22.03 46.776 22.22 47.127 22.543 47.127 Z M 73.867 49.527 L 60.177 53.484 C 60.103 53.503 60.038 53.544 59.988 53.6 C 58.485 55.259 57.214 56.36 56.922 56.614 C 56.072 57.335 55.018 57.728 53.908 57.728 L 48.952 57.728 L 48.952 52.675 L 52.891 52.675 C 52.993 52.675 53.09 52.638 53.164 52.573 L 53.672 52.106 C 53.889 51.908 54.148 51.667 54.458 51.357 C 54.643 51.172 54.846 50.974 55.045 50.752 C 55.249 50.553 55.448 50.331 55.632 50.114 C 55.942 49.781 56.238 49.434 56.548 49.069 C 56.77 48.828 56.973 48.556 57.172 48.283 C 57.394 48.024 57.611 47.733 57.815 47.455 C 57.963 47.238 58.129 47.016 58.291 46.78 C 58.439 46.558 58.587 46.323 58.712 46.101 C 59.1 45.5 59.428 44.857 59.706 44.214 C 59.849 43.905 59.96 43.576 60.071 43.262 C 60.182 42.934 60.274 42.624 60.344 42.296 C 60.51 41.524 60.547 40.756 60.473 39.989 C 60.455 39.748 60.436 39.512 60.381 39.29 L 60.381 39.254 C 60.362 39.096 60.325 38.921 60.274 38.759 C 60.108 38.01 59.849 37.261 59.521 36.526 C 59.41 36.253 59.28 35.976 59.155 35.721 C 58.86 35.171 58.55 34.621 58.198 34.089 C 58.074 33.89 57.926 33.687 57.796 33.488 C 57.523 33.067 57.209 32.665 56.918 32.277 C 56.696 31.986 56.442 31.694 56.201 31.398 C 55.961 31.107 55.725 30.83 55.485 30.557 C 54.625 29.586 53.723 28.708 52.919 27.959 C 52.771 27.811 52.609 27.663 52.442 27.519 C 51.818 26.951 51.25 26.456 50.773 26.072 C 50.533 25.887 50.334 25.707 50.149 25.559 C 49.913 25.384 49.728 25.24 49.599 25.143 C 49.562 25.115 49.52 25.097 49.479 25.083 L 48.952 24.935 L 48.952 20.571 C 48.952 19.859 48.665 19.221 48.207 18.754 C 47.75 18.287 47.112 18 46.409 18 C 45.003 18 43.866 19.151 43.866 20.571 L 43.866 23.511 L 43.603 23.437 L 42.886 23.234 L 42.234 23.053 C 42.229 23.053 42.225 23.049 42.216 23.049 L 42.202 23.049 L 37.255 21.708 C 37.037 21.648 36.852 21.884 36.963 22.082 L 37.754 23.543 C 37.828 23.728 37.934 23.913 38.027 24.112 C 38.156 24.371 38.286 24.644 38.411 24.917 C 38.521 25.157 38.632 25.393 38.762 25.652 C 39.016 26.22 39.294 26.821 39.566 27.483 C 39.751 27.922 39.936 28.361 40.098 28.819 C 40.542 29.97 40.963 31.2 41.328 32.462 C 41.457 32.864 41.55 33.248 41.661 33.65 L 41.712 33.872 C 41.86 34.459 41.989 35.042 42.081 35.629 C 42.155 36.031 42.225 36.415 42.262 36.803 C 42.317 37.242 42.373 37.682 42.391 38.121 C 42.428 38.523 42.447 38.944 42.447 39.346 C 42.447 40.372 42.354 41.362 42.137 42.296 C 42.063 42.568 41.989 42.86 41.897 43.137 C 41.804 43.465 41.675 43.794 41.55 44.145 C 41.476 44.344 41.402 44.547 41.309 44.746 C 40.852 45.846 40.283 46.942 39.696 47.968 C 38.836 49.49 37.971 50.826 37.366 51.686 C 37.282 51.81 37.204 51.921 37.135 52.028 C 36.945 52.296 37.139 52.675 37.467 52.675 L 43.866 52.675 L 43.866 57.728 L 37.393 57.728 C 35.655 57.728 34.046 56.744 33.269 55.167 C 32.867 54.376 32.71 53.507 32.802 52.657 C 32.826 52.402 32.636 52.162 32.377 52.162 L 19.302 52.162 C 19.08 52.162 18.9 52.342 18.9 52.564 L 18.9 52.832 C 18.9 61.173 25.636 67.932 33.949 67.932 L 57.403 67.932 C 63.025 67.932 65.54 61.381 68.832 56.799 C 70.122 55.005 73.224 53.581 74.13 53.193 C 74.278 53.128 74.38 52.98 74.38 52.814 L 74.38 49.915 C 74.38 49.647 74.121 49.453 73.867 49.527 Z" fill="#2081E2"/>
</svg>