<?xml version="1.0" standalone="no"?>
<!DOCTYPE svg PUBLIC "-//W3C//DTD SVG 20010904//EN"
 "http://www.w3.org/TR/2001/REC-SVG-20010904/DTD/svg10.dtd">
<svg version="1.0" xmlns="http://www.w3.org/2000/svg"
 width="256.000000pt" height="256.000000pt" viewBox="0 0 256.000000 256.000000"
 preserveAspectRatio="xMidYMid meet">
<metadata>
Created by potrace 1.14, written by Peter Selinger 2001-2017
</metadata>
<g transform="translate(0.000000,256.000000) scale(0.100000,-0.100000)"
fill="#000000" stroke="none">
<path d="M1032 2454 c-339 -70 -602 -347 -692 -728 -29 -123 -35 -178 -35
-345 l0 -154 80 -28 c121 -44 315 -106 360 -116 47 -11 46 -5 9 -138 -39 -144
-39 -358 2 -437 23 -44 63 -78 91 -78 24 0 24 -1 21 -75 -2 -42 -1 -100 2
-130 l6 -54 -31 6 c-16 3 -40 12 -52 19 -26 16 -31 54 -8 54 8 0 22 11 30 24
15 22 15 28 1 53 -16 33 -41 56 -62 59 -15 2 -64 -50 -65 -69 0 -7 -2 -22 -5
-34 -4 -23 19 -53 40 -53 7 0 18 -12 25 -26 l12 -26 -38 7 c-43 7 -60 19 -44
30 8 4 5 19 -11 46 -31 56 -65 52 -92 -12 -13 -32 -13 -38 0 -57 11 -16 21
-20 43 -16 16 3 39 0 52 -6 57 -31 457 -44 606 -20 4 0 33 59 33 65 -1 26 2
36 16 49 25 25 38 19 57 -29 15 -35 28 -48 63 -66 42 -20 56 -21 182 -16 75 3
148 8 162 11 30 7 50 31 51 63 1 13 2 29 2 36 5 68 -43 242 -113 417 -24 58
-44 121 -45 140 -3 64 -17 124 -47 204 -25 64 -28 80 -17 87 8 5 19 9 25 9 13
0 125 46 209 86 70 33 123 69 184 126 l43 41 -6 61 c-10 93 -15 123 -41 234
-31 130 -74 233 -143 346 -96 155 -175 242 -295 323 -174 116 -370 157 -565
117z"/>
</g>
</svg>
